<?xml version="1.0" encoding="UTF-8"?><svg id="Layer_2" xmlns="http://www.w3.org/2000/svg" width="32.8" height="40.3" viewBox="0 0 32.8 40.3"><g id="Layer_2-2"><path d="M14.6,24.4l-5.8,4.6h-.1c0-.1,4.6-6.4,4.6-6.4-4.5-.6-13.3-1.9-13.3-1.9,4.3-.6,8.6-1.1,12.9-1.7l-4.8-6.6.2-.2,6.3,5.3h0C15.2,11.6,15.8,5.8,16.3,0h.1s1.7,17.5,1.7,17.5h0s6.4-5.4,6.4-5.4h.1c0,.1-4.9,6.9-4.9,6.9,4.3.6,8.6,1.1,12.9,1.7,0,0-8.8,1.3-13.3,1.9l4.5,6-.2.2-5.6-4.4-1.7,15.9h-.2s-1.7-15.9-1.7-15.9Z" fill="#bd9a5f" stroke-width="0"/></g></svg>