<?xml version="1.0" encoding="UTF-8"?><svg id="Layer_2" xmlns="http://www.w3.org/2000/svg" width="28.5" height="88.2" viewBox="0 0 28.5 88.2"><g id="Layer_2-2"><path d="M26,43.2c0,9.9,0,21.8,0,31.6,0,5-2.1,9-6.5,11.5-4.4,2.5-9,2.4-13.5-.2-6.6-3.9-8.1-13-3.2-18.8,1.7-2,2.9-2,4.6,0,.7.9,1.4,1.8,2,2.7.7,1,.8,2-.2,2.8-1,.8-2.1.6-3-.4-.3-.4-.7-.8-1.2-1.4-1.5,3.2-1.5,6.1.3,8.8,1.9,2.9,4.7,4.3,8.2,4,4.9-.3,8.3-4,8.3-8.9,0-10.1,0-20.2,0-30.3l4.1-1.7Z" fill="#bd9a5f" stroke-width="0"/><path d="M26,11.7c0,2.9,0,7.8,0,10.6l-4,1.3c0-5.9,0-15.1,0-21,0-1.8.9-2.7,2.2-2.6,1.5.2,1.9,1.2,1.9,2.6,0,3,0,6.1,0,9.1Z" fill="#bd9a5f" stroke-width="0"/><line x1="21" y1="40.8" x2="26.5" y2="38.7" fill="#bd9a5f" stroke-width="0"/><path d="M21,42.8c-.8,0-1.6-.5-1.9-1.3-.4-1,.1-2.2,1.2-2.6l5.5-2c1-.4,2.2.1,2.6,1.2.4,1-.1,2.2-1.2,2.6l-5.5,2c-.2,0-.5.1-.7.1Z" fill="#bd9a5f" stroke-width="0"/><line x1="21" y1="34.4" x2="26.5" y2="32.4" fill="#bd9a5f" stroke-width="0"/><path d="M21,36.4c-.8,0-1.6-.5-1.9-1.3-.4-1,.1-2.2,1.2-2.6l5.5-2c1-.4,2.2.1,2.6,1.2.4,1-.1,2.2-1.2,2.6l-5.5,2c-.2,0-.5.1-.7.1Z" fill="#bd9a5f" stroke-width="0"/><line x1="21" y1="28.1" x2="26.5" y2="26.1" fill="#bd9a5f" stroke-width="0"/><path d="M21,30.1c-.8,0-1.6-.5-1.9-1.3-.4-1,.1-2.2,1.2-2.6l5.5-2c1-.4,2.2.1,2.6,1.2.4,1-.1,2.2-1.2,2.6l-5.5,2c-.2,0-.5.1-.7.1Z" fill="#bd9a5f" stroke-width="0"/></g></svg>