<svg style="color:#243746" id="Layer_2" xmlns="http://www.w3.org/2000/svg" width="102.6" height="129.1" viewBox="0 0 102.6 129.1"><g id="Layer_1-2"><path d="M60.7,32.3l-3.6,7.3c-4.2-1.9-8.4-2.8-15.7-2.8h-7.9v10.7h17.4l2.6-2.2h.6l1.6,11.1h-.6c0,.1-4.3-3.5-4.3-3.5h-17.3v12.3l4.3,3.7v.6h-15.7v-.6l4.3-3.7v-29.3l-4.3-3.7v-.6h38.5v.6Z" fill="currentColor" stroke-width="0"/><path d="M82.6,63.7l-3.6,7.3c-4.2-1.9-8.4-2.8-15.7-2.8h-7.9v10.7h17.4l2.6-2.2h.6l1.6,11.1h-.6c0,.1-4.3-3.5-4.3-3.5h-17.3v12.3l4.3,3.7v.6h-15.7v-.6l4.3-3.7v-29.3l-4.3-3.7v-.6h38.5v.6Z" fill="currentColor" stroke-width="0"/></g><g id="Layer_2-2"><path d="M70.5,49.9l-4.2,3.3h0c0,0,3.4-4.7,3.4-4.7-3.3-.4-9.7-1.4-9.7-1.4,3.1-.4,6.3-.8,9.4-1.2l-3.5-4.8h.1c0-.1,4.6,3.7,4.6,3.7h0c.4-4.3.8-8.5,1.2-12.8h0s1.2,12.7,1.2,12.7h0s4.7-3.9,4.7-3.9h0c0,0-3.6,5-3.6,5,3.2.4,6.3.8,9.4,1.2,0,0-6.4,1-9.7,1.4l3.3,4.4h-.1c0,.1-4.1-3.1-4.1-3.1l-1.2,11.6h-.1s-1.2-11.6-1.2-11.6Z" fill="var(--ff-accent,#BD9A5F)" stroke-width="0"/><path d="M28.2,89.2l-4.2,3.3h0c0,0,3.4-4.7,3.4-4.7-3.3-.4-9.7-1.4-9.7-1.4,3.1-.4,6.3-.8,9.4-1.2l-3.5-4.8h.1c0-.1,4.6,3.7,4.6,3.7h0c.4-4.3.8-8.5,1.2-12.8h0s1.2,12.7,1.2,12.7h0s4.7-3.9,4.7-3.9h0c0,0-3.6,5-3.6,5,3.2.4,6.3.8,9.4,1.2,0,0-6.4,1-9.7,1.4l3.3,4.4h-.1c0,.1-4.1-3.1-4.1-3.1l-1.2,11.6h-.1s-1.2-11.6-1.2-11.6Z" fill="var(--ff-accent,#BD9A5F)" stroke-width="0"/><path d="M51.3,129.1C23,129.1,0,100.1,0,64.5S23,0,51.3,0s51.3,29,51.3,64.5-23,64.5-51.3,64.5ZM51.3,4C25.2,4,6,31.2,6,64.5s19.2,60.5,45.3,60.5,45.3-27.2,45.3-60.5S77.4,4,51.3,4Z" fill="currentColor" stroke-width="0"/></g></svg>