<?xml version="1.0" encoding="UTF-8"?><svg id="Layer_2" xmlns="http://www.w3.org/2000/svg" width="551" height="94.9" viewBox="0 0 551 94.9"><g id="Layer_1-2"><path d="M80.7,1.6l-3.6,7.3c-4.2-1.9-8.4-2.8-15.7-2.8h-7.9v16.2h17.4l2.6-2.2h.6l1.6,11.1h-.6c0,.1-4.3-3.5-4.3-3.5h-17.3v59.3l4.3,3.7v.6h-15.7v-.6l4.3-3.7V5.2l-4.3-3.7v-.6h38.5v.6Z" fill="#fff" stroke-width="0"/><path d="M88.8,38.2l4.3-3.7V5.2l-4.3-3.7v-.6h15.7v.6l-4.3,3.7v29.3l4.3,3.7v.6h-15.7v-.6Z" fill="#fff" stroke-width="0"/><path d="M113.3,37.6l3.6-8.3c3.8,2.9,10.3,4.6,17.6,4.6s12-2.1,12-5.8-2.9-4.2-12.5-6.1c-12.9-2.6-18.4-5.5-18.4-11.9S121.6.2,135.6.2s11.4.3,17.7.8v.4l-3.3,7c-4.4-2.1-9.7-3.3-16.8-3.3s-10.2,1.4-10.2,4.5,3.3,4.6,12.4,6.3c13.8,2.5,18.8,5.1,18.8,11.9s-6.6,11.8-20.5,11.8-16.3-.8-20.4-2Z" fill="#fff" stroke-width="0"/><path d="M205.6,5.2v29.3l4.3,3.7v.6h-15.7v-.6l4.3-3.7v-12.7h-24.4v12.7l4.3,3.7v.6h-15.7v-.6l4.3-3.7V5.2l-4.3-3.7v-.6h15.7v.6l-4.3,3.7v10.6h24.4V5.2l-4.3-3.7v-.6h15.7v.6l-4.3,3.7Z" fill="#fff" stroke-width="0"/><path d="M258.8,38.2v.6h-40.2v-.6l4.3-3.7V5.2l-4.3-3.7v-.6h38.5v.6l-3.6,7.3c-4.2-1.9-8.4-2.8-15.7-2.8h-7.9v9.6h17.4l2.6-2.2h.6l1.6,11.1h-.6c0,.1-4.3-3.5-4.3-3.5h-17.3v12.5h10.2c7.6,0,11.4-.8,15.8-2.9l3,7.5Z" fill="#fff" stroke-width="0"/><path d="M312.4,30.8v7.8c-.9.4-2.3.6-4.4.6-8.8,0-14.9-6.2-16.6-17.6h-13.1v12.7l4.3,3.7v.6h-15.7v-.6l4.3-3.7V5.2l-4.3-3.7v-.6h32.6c7.6,0,11.9,3.7,11.9,10.2s-4.5,10.6-12.4,10.6h-1.4c1,6.8,4.8,10.5,9.5,10.5s3.9-.6,4.9-1.5h.4ZM278.3,16.4h20.1c4,0,5.9-1.7,5.9-5.2s-1.9-4.8-5.9-4.8h-20.1v10Z" fill="#fff" stroke-width="0"/><path d="M373.3,5.2v29.3l4.3,3.7v.6h-15.7v-.6l4.3-3.7V6.8l-15.4,29.1h-3.8l-15.6-29.3v28l4.3,3.7v.6h-14.6v-.6l4.3-3.7V5.2l-4.3-3.7v-.6h14.8l13.5,25.2,13.5-25.2h14.5v.6l-4.3,3.7Z" fill="#fff" stroke-width="0"/><path d="M441,38.2v.6h-15v-.6l3.1-2-5.1-9.3c-4.4,2.2-8.5,5-11,8.1h-.3c-2.5-3.1-6.7-5.9-11.1-8.1l-5.1,9.2,3.2,2.1v.6h-15v-.6l5.3-3.5,5.6-10.2c-1.4-.4-2.8-.8-4-1.1l1-5.3c1.8.3,3.8.8,5.8,1.5l8.4-15.1-3.5-2.9v-.5h9.6c0,0,3.9,0,3.9,0h5.9v.6l-3.4,2.9,8.3,15c1.8-.6,3.6-1,5.3-1.3l1,5.3c-1.1.2-2.3.5-3.5.9l6,10.8,4.7,3.1ZM421.3,22l-8.5-15.6-8.5,15.6c3.2,1.6,6.2,3.6,8.5,6,2.4-2.4,5.3-4.4,8.5-6Z" fill="#fff" stroke-width="0"/><path d="M490.8,5.2v29.5l4.3,3.5v.6h-15.7v-.6l3-2.4-24.1-28.8v27.5l4.3,3.7v.6h-14.6v-.6l4.3-3.7V5.2l-4.3-3.7v-.6h13.7l23.1,27.6V5.2l-4.3-3.7v-.6h14.6v.6l-4.3,3.7Z" fill="#fff" stroke-width="0"/><path d="M501.2,0h6.8l-5.5,11.3h-2.8l1.5-11.3Z" fill="#fff" stroke-width="0"/><path d="M508.9,37.6l3.6-8.3c3.8,2.9,10.3,4.6,17.6,4.6s12-2.1,12-5.8-2.9-4.2-12.5-6.1c-12.9-2.6-18.4-5.5-18.4-11.9s6-9.9,20-9.9,11.4.3,17.7.8v.4l-3.3,7c-4.4-2.1-9.7-3.3-16.8-3.3s-10.2,1.4-10.2,4.5,3.3,4.6,12.4,6.3c13.8,2.5,18.8,5.1,18.8,11.9s-6.6,11.8-20.5,11.8-16.3-.8-20.4-2Z" fill="#fff" stroke-width="0"/><path d="M113,56.4l-3.6,7.3c-4.2-1.9-8.4-2.8-15.7-2.8h-7.9v10.7h17.4l2.6-2.2h.6l1.6,11.1h-.6c0,.1-4.3-3.5-4.3-3.5h-17.3v12.3l4.3,3.7v.6h-15.7v-.6l4.3-3.7v-29.3l-4.3-3.7v-.6h38.5v.6Z" fill="#fff" stroke-width="0"/><path d="M161.4,93v.6h-40.2v-.6l4.3-3.7v-29.3l-4.3-3.7v-.6h38.5v.6l-3.6,7.3c-4.2-1.9-8.4-2.8-15.7-2.8h-7.9v9.6h17.4l2.6-2.2h.6l1.6,11.1h-.6c0,.1-4.3-3.5-4.3-3.5h-17.3v12.5h10.2c7.6,0,11.4-.8,15.8-2.9l3,7.5Z" fill="#fff" stroke-width="0"/><path d="M207.1,93v.6h-37.5v-.6l4.3-3.7v-29.3l-4.3-3.7v-.6h15.7v.6l-4.3,3.7v28.7h7.5c8.7,0,10.7-1.4,12.6-4.5l6.1,8.8Z" fill="#fff" stroke-width="0"/><path d="M252,93v.6h-37.5v-.6l4.3-3.7v-29.3l-4.3-3.7v-.6h15.7v.6l-4.3,3.7v28.7h7.5c8.7,0,10.7-1.4,12.6-4.5l6.1,8.8Z" fill="#fff" stroke-width="0"/><path d="M369.4,59.3l-11.7,29.5,5,4.2v.5h-18.4v-.6l4.5-3.8-8-21.8-8,21.9,4.5,3.8v.5h-18.9v-.6l4.7-3.9-12-30.1-3.9-2.5v-.6h15v.6l-3.5,2.3,9.6,25.9,9.8-25.1-4.6-3v-.6h15v.6l-4.6,3,9.5,24.5,9.3-24.8-4-2.6v-.6h15v.6l-4.5,2.9Z" fill="#fff" stroke-width="0"/><path d="M378.1,92.4l3.6-8.3c3.8,2.9,10.3,4.6,17.6,4.6s12-2.1,12-5.8-2.9-4.2-12.5-6.1c-12.9-2.6-18.4-5.5-18.4-11.9s6-9.9,20-9.9,11.4.3,17.7.8v.4l-3.3,7c-4.4-2.1-9.7-3.3-16.8-3.3s-10.2,1.4-10.2,4.5,3.3,4.6,12.4,6.3c13.8,2.5,18.8,5.1,18.8,11.9s-6.6,11.8-20.5,11.8-16.3-.8-20.4-2Z" fill="#fff" stroke-width="0"/><path d="M470.3,60v29.3l4.3,3.7v.6h-15.7v-.6l4.3-3.7v-12.7h-24.4v12.7l4.3,3.7v.6h-15.7v-.6l4.3-3.7v-29.3l-4.3-3.7v-.6h15.7v.6l-4.3,3.7v10.6h24.4v-10.6l-4.3-3.7v-.6h15.7v.6l-4.3,3.7Z" fill="#fff" stroke-width="0"/><path d="M483.4,93l4.3-3.7v-29.3l-4.3-3.7v-.6h15.7v.6l-4.3,3.7v29.3l4.3,3.7v.6h-15.7v-.6Z" fill="#fff" stroke-width="0"/><path d="M551,67.3c0,7.2-5.3,11.9-13.5,11.9h-18.5v10l4.3,3.7v.6h-15.7v-.6l4.3-3.7v-29.3l-4.3-3.7v-.6h29.9c8.7,0,13.5,4.1,13.5,11.6ZM543.9,67.3c0-4.3-2.4-6.2-7.9-6.2h-17v12.7h17c5.6,0,7.9-1.9,7.9-6.5Z" fill="#fff" stroke-width="0"/></g><g id="Layer_2-2"><path d="M26,44.5c0,9.9,0,21.8,0,31.6,0,5-2.1,9-6.5,11.5-4.4,2.5-9,2.4-13.5-.2-6.6-3.9-8.1-13-3.2-18.8,1.7-2,2.9-2,4.6,0,.7.9,1.4,1.8,2,2.7.7,1,.8,2-.2,2.8-1,.8-2.1.6-3-.4-.3-.4-.7-.8-1.2-1.4-1.5,3.2-1.5,6.1.3,8.8,1.9,2.9,4.7,4.3,8.2,4,4.9-.3,8.3-4,8.3-8.9,0-10.1,0-20.2,0-30.3l4.1-1.7Z" fill="#bd9a5f" stroke-width="0"/><path d="M26,13c0,2.9,0,7.8,0,10.6l-4,1.3c0-5.9,0-15.1,0-21,0-1.8.9-2.7,2.2-2.6,1.5.2,1.9,1.2,1.9,2.6,0,3,0,6.1,0,9.1Z" fill="#bd9a5f" stroke-width="0"/><line x1="21" y1="42" x2="26.5" y2="40" fill="#bd9a5f" stroke-width="0"/><path d="M21,44c-.8,0-1.6-.5-1.9-1.3-.4-1,.1-2.2,1.2-2.6l5.5-2c1-.4,2.2.1,2.6,1.2.4,1-.1,2.2-1.2,2.6l-5.5,2c-.2,0-.5.1-.7.1Z" fill="#bd9a5f" stroke-width="0"/><line x1="21" y1="35.7" x2="26.5" y2="33.7" fill="#bd9a5f" stroke-width="0"/><path d="M21,37.7c-.8,0-1.6-.5-1.9-1.3-.4-1,.1-2.2,1.2-2.6l5.5-2c1-.4,2.2.1,2.6,1.2.4,1-.1,2.2-1.2,2.6l-5.5,2c-.2,0-.5.1-.7.1Z" fill="#bd9a5f" stroke-width="0"/><line x1="21" y1="29.4" x2="26.5" y2="27.4" fill="#bd9a5f" stroke-width="0"/><path d="M21,31.4c-.8,0-1.6-.5-1.9-1.3-.4-1,.1-2.2,1.2-2.6l5.5-2c1-.4,2.2.1,2.6,1.2.4,1-.1,2.2-1.2,2.6l-5.5,2c-.2,0-.5.1-.7.1Z" fill="#bd9a5f" stroke-width="0"/><path d="M278.1,79l-5.8,4.6h-.1c0-.1,4.6-6.4,4.6-6.4-4.5-.6-13.3-1.9-13.3-1.9,4.3-.6,8.6-1.1,12.9-1.7l-4.8-6.6.2-.2,6.3,5.3h0c.6-5.9,1.1-11.7,1.7-17.5h.1s1.7,17.5,1.7,17.5h0s6.4-5.4,6.4-5.4h.1c0,.1-4.9,6.9-4.9,6.9,4.3.6,8.6,1.1,12.9,1.7,0,0-8.8,1.3-13.3,1.9l4.5,6-.2.2-5.6-4.4-1.7,15.9h-.2s-1.7-15.9-1.7-15.9Z" fill="#bd9a5f" stroke-width="0"/><path d="M277.2,89c-9.9-.7-14.2-5.2-14.2-14.6s4.3-13.5,14.3-14.1l.4-3.9.2-1.6c-14.8.6-22.2,7.1-22.2,19.6s7.4,19.6,22.1,20.2l-.6-5.5Z" fill="#fff" stroke-width="0"/><path d="M282,54.8l.5,5.5c10,.6,14.4,4.9,14.4,14.1s-4.3,14-14.2,14.6l-.6,5.5c14.8-.6,22.1-7.3,22.1-20.2s-7.4-19.1-22.2-19.6Z" fill="#fff" stroke-width="0"/></g></svg>